<svg width="24" height="25" viewBox="0 0 24 25" fill="none" xmlns="http://www.w3.org/2000/svg">
<path d="M17 10.8718H19C21 10.8718 22 9.87183 22 7.87183V5.87183C22 3.87183 21 2.87183 19 2.87183H17C15 2.87183 14 3.87183 14 5.87183V7.87183C14 9.87183 15 10.8718 17 10.8718Z" stroke="#47D18C" stroke-width="1.5" stroke-miterlimit="10" stroke-linecap="round" stroke-linejoin="round"/>
<path d="M5 22.8718H7C9 22.8718 10 21.8718 10 19.8718V17.8718C10 15.8718 9 14.8718 7 14.8718H5C3 14.8718 2 15.8718 2 17.8718V19.8718C2 21.8718 3 22.8718 5 22.8718Z" stroke="#47D18C" stroke-width="1.5" stroke-miterlimit="10" stroke-linecap="round" stroke-linejoin="round"/>
<path d="M6 10.8718C8.20914 10.8718 10 9.08097 10 6.87183C10 4.66269 8.20914 2.87183 6 2.87183C3.79086 2.87183 2 4.66269 2 6.87183C2 9.08097 3.79086 10.8718 6 10.8718Z" stroke="#47D18C" stroke-width="1.5" stroke-miterlimit="10" stroke-linecap="round" stroke-linejoin="round"/>
<path d="M18 22.8718C20.2091 22.8718 22 21.081 22 18.8718C22 16.6627 20.2091 14.8718 18 14.8718C15.7909 14.8718 14 16.6627 14 18.8718C14 21.081 15.7909 22.8718 18 22.8718Z" stroke="#47D18C" stroke-width="1.5" stroke-miterlimit="10" stroke-linecap="round" stroke-linejoin="round"/>
</svg>
