<svg width="24" height="24" viewBox="0 0 24 24" fill="none" xmlns="http://www.w3.org/2000/svg">
<path fill-rule="evenodd" clip-rule="evenodd" d="M15.0056 16.0658C15.2985 16.3587 15.7734 16.3587 16.0663 16.0658C16.3591 15.7729 16.3591 15.298 16.0663 15.0051L13.0611 11.9999L16.0662 8.9947C16.3591 8.70181 16.3591 8.22694 16.0662 7.93404C15.7734 7.64115 15.2985 7.64115 15.0056 7.93404L12.0004 10.9393L8.99519 7.93403C8.70229 7.64113 8.22742 7.64113 7.93453 7.93403C7.64163 8.22692 7.64163 8.70179 7.93453 8.99469L10.9397 11.9999L7.93452 15.0051C7.64162 15.298 7.64162 15.7729 7.93452 16.0658C8.22741 16.3587 8.70228 16.3587 8.99518 16.0658L12.0004 13.0606L15.0056 16.0658Z" fill="#1F8FFF"/>
</svg>
