<svg width="101" height="101" viewBox="0 0 101 101" fill="none" xmlns="http://www.w3.org/2000/svg">
<rect x="2.33984" y="1.63501" width="97" height="97" rx="28.5" fill="#242D3C" stroke="#252A3F" stroke-width="3"/>
<path d="M41.8477 24.9976V25.0007C41.2072 25.0007 40.5709 25.0232 39.9424 25.0719C39.7389 25.0856 39.5344 25.1034 39.3321 25.1248C39.0694 25.1518 38.8091 25.1823 38.5495 25.217C38.4047 25.2349 38.263 25.2574 38.1192 25.2766H38.088C37.9789 25.29 37.8698 25.312 37.76 25.3292C37.6864 25.3429 37.6123 25.352 37.5415 25.365C37.3202 25.4053 37.096 25.4453 36.8758 25.4891C36.5678 25.5515 36.263 25.6199 35.9596 25.6928C35.9284 25.7016 35.8916 25.7061 35.8593 25.7149C35.8091 25.7282 35.7618 25.7373 35.7151 25.751L35.6836 25.7594C35.309 25.8541 34.9382 25.9571 34.5706 26.0679C34.4317 26.1082 34.2956 26.1531 34.1574 26.1962C34.048 26.232 33.9417 26.2671 33.833 26.3039C33.753 26.3305 33.6706 26.3572 33.5906 26.3859C33.5594 26.3943 33.5408 26.4034 33.5138 26.4126C33.4826 26.4213 33.4549 26.435 33.4251 26.4434C33.3009 26.4883 33.1743 26.5332 33.0515 26.5791C33.0203 26.5882 32.9982 26.6015 32.9715 26.6103C32.9182 26.6331 32.8649 26.651 32.8123 26.6738C32.712 26.7141 32.6117 26.7505 32.5099 26.7905C31.9508 28.1855 31.5134 29.6422 31.21 31.147C30.8863 32.7545 30.7158 34.4156 30.7158 36.1163C31.4278 46.7861 36.6403 55.2229 45.905 59.8703C46.1597 59.994 46.415 60.1136 46.6728 60.2296C46.7293 60.2524 46.7854 60.2791 46.8415 60.3032C47.0923 60.4137 47.3438 60.5206 47.597 60.6237C49.2712 61.3035 51.0274 61.821 52.8471 62.1561C52.8783 62.1561 52.8783 62.1698 52.8944 62.1698C54.4785 62.4583 56.1087 62.6101 57.7751 62.6101V62.5965C58.2356 62.5965 58.6937 62.5831 59.1486 62.5607C59.2016 62.5607 59.2549 62.5474 59.3075 62.5474C59.4141 62.5337 59.5204 62.5337 59.6274 62.5253C59.6954 62.5253 59.7603 62.5253 59.828 62.5116C60.0497 62.4934 60.2686 62.4759 60.4867 62.4534C60.6698 62.4352 60.8498 62.4131 61.0315 62.3931C61.076 62.3795 61.123 62.3795 61.1672 62.3795C61.3741 62.3528 61.5825 62.3237 61.788 62.2936C62.2387 62.2255 62.6845 62.1481 63.1283 62.0594C63.3408 62.0145 63.5537 61.9703 63.7652 61.9226C63.8743 61.8998 63.9809 61.8721 64.089 61.8451C64.2012 61.6309 64.3138 61.416 64.4222 61.1983C64.4222 61.1846 64.453 61.1667 64.453 61.1482C64.5828 60.8838 64.7077 60.6163 64.8273 60.3467C64.8273 60.3243 64.8589 60.2966 64.8589 60.272C64.9711 60.0206 65.077 59.7679 65.1808 59.5119C65.1808 59.4944 65.1809 59.4807 65.2121 59.4621C65.7712 58.0671 66.2082 56.6111 66.5109 55.1067C66.5109 55.0755 66.5109 55.0398 66.5425 55.0071C66.5737 54.9283 66.5737 54.8487 66.5874 54.7698C66.6182 54.6548 66.6319 54.5398 66.6495 54.4245C66.6807 54.3361 66.6807 54.2502 66.6898 54.1626C66.721 54.0465 66.7301 53.9312 66.7456 53.8144C66.7456 53.7429 66.7768 53.671 66.7768 53.5999C66.808 53.468 66.8171 53.3383 66.8301 53.2061C66.8301 53.1528 66.8301 53.0982 66.8613 53.0445C66.8929 52.8895 66.8974 52.7349 66.9115 52.5789V52.5337C66.9855 51.7445 67.0269 50.9455 67.0269 50.1374C67.0269 48.4359 66.8553 46.7744 66.532 45.1673C66.532 45.106 66.5004 45.0457 66.4916 44.9854C66.4916 44.9398 66.4601 44.8949 66.4601 44.8497C66.4601 44.789 66.4288 44.7252 66.4197 44.6632C66.3885 44.5818 66.3797 44.4998 66.3639 44.4192C66.3327 44.308 66.3138 44.1972 66.2847 44.0871C66.2528 44.0093 66.2443 43.9304 66.225 43.8522C66.225 43.8256 66.225 43.7979 66.1942 43.7702C66.1493 43.6023 66.1054 43.435 66.0577 43.2685C66.0265 43.1731 66.0044 43.076 65.9746 42.981C65.9438 42.8895 65.9188 42.7991 65.8894 42.7083C65.8894 42.6718 65.8582 42.6357 65.8582 42.5992C65.8049 42.4316 65.7515 42.2648 65.6958 42.0996C65.6646 42.0302 65.6509 41.9608 65.6253 41.891C65.4979 41.5271 65.365 41.167 65.2216 40.8112V40.8021C65.19 40.7506 65.1767 40.6983 65.1532 40.6461C64.8206 39.8337 64.4496 39.0417 64.0374 38.2739C63.8957 38.0071 63.7452 37.7435 63.5934 37.4826C61.5572 34.0012 58.7085 31.051 55.3083 28.8934C55.0834 28.751 54.8579 28.6133 54.6303 28.479C54.5899 28.4565 54.5471 28.4295 54.5061 28.4054C54.4086 28.3496 54.3111 28.2953 54.2108 28.2399C54.0662 28.1575 53.9214 28.073 53.7723 27.9931C53.7411 27.9794 53.7137 27.9618 53.6839 27.9464C53.4626 27.8279 53.2364 27.7126 53.0101 27.6C52.9624 27.5779 52.9154 27.5538 52.8712 27.5313C52.812 27.5001 52.7495 27.4756 52.691 27.4468C52.4987 27.3553 52.3083 27.2628 52.114 27.1765C52.0782 27.1628 52.0431 27.1446 52.0049 27.1285C51.7716 27.0261 51.5398 26.9272 51.3041 26.8312C48.3876 25.6469 45.2007 24.993 41.8634 24.993L41.8477 24.9976ZM75.3212 39.4765C72.2129 39.4765 69.6433 42.0442 69.6433 45.1515C69.6433 48.2592 72.2129 50.8266 75.3212 50.8266C78.4303 50.8266 80.9998 48.2592 80.9998 45.1515C80.9998 42.0442 78.4303 39.4765 75.3212 39.4765ZM33.1423 53.4438C31.5987 56.6976 30.7312 60.3319 30.7312 64.1674C30.7312 65.8685 30.9028 67.5303 31.2251 69.1371C31.5281 70.6419 31.9655 72.0975 32.5253 73.4929C32.6786 73.5542 32.8322 73.6138 32.9869 73.672C33.15 73.7334 33.3134 73.793 33.4772 73.8501C33.4772 73.8638 33.5084 73.8638 33.5218 73.8638C33.553 73.8771 33.5807 73.8862 33.6105 73.895C33.7582 73.9451 33.9027 73.9953 34.0514 74.044C34.0917 74.0577 34.1282 74.0707 34.1664 74.0843C34.2696 74.1155 34.3734 74.1492 34.4762 74.1804C34.5172 74.1941 34.5537 74.2028 34.5916 74.2165C34.929 74.3182 35.2689 74.4121 35.6119 74.5001C35.6473 74.5135 35.682 74.5177 35.7181 74.5268C35.763 74.5401 35.8097 74.5492 35.857 74.5583C36.0015 74.5941 36.1432 74.6271 36.2892 74.6607C36.4845 74.7056 36.6795 74.7484 36.8763 74.7869C38.3838 75.0905 39.9397 75.2574 41.5301 75.2771H41.8475C42.0453 75.2771 42.2396 75.2771 42.435 75.2634H42.6037C42.7486 75.2634 42.8959 75.2504 43.0411 75.2458C43.0944 75.2458 43.147 75.2322 43.2 75.2322C43.3743 75.2192 43.5511 75.2101 43.7261 75.201H43.7906C43.9794 75.1876 44.1663 75.1694 44.3539 75.1508C44.4132 75.1372 44.4721 75.1372 44.5314 75.1333C44.6759 75.1196 44.8204 75.1018 44.966 75.0839C45.0134 75.0705 45.0604 75.0706 45.1102 75.066C45.261 75.0432 45.4139 75.0257 45.5647 75.0025C45.6121 74.9892 45.6587 74.9892 45.7036 74.9801C45.8867 74.9489 46.0705 74.9212 46.2533 74.8886C46.3034 74.8749 46.3532 74.8704 46.4065 74.8567C46.5398 74.8346 46.6724 74.8076 46.8039 74.781C46.8748 74.7673 46.9456 74.7498 47.0133 74.7361C47.1498 74.7052 47.2855 74.6775 47.4213 74.6474C47.4616 74.6337 47.5068 74.6292 47.5486 74.6162C47.7345 74.5713 47.919 74.5275 48.1031 74.4805C48.1389 74.4668 48.1712 74.4623 48.2066 74.4532C48.3339 74.4219 48.4637 74.3855 48.5892 74.3497C48.8607 74.2747 49.1291 74.1955 49.396 74.111C49.436 74.098 49.4752 74.0843 49.517 74.0714C49.7534 73.9949 49.9866 73.9164 50.2192 73.8337C50.2725 73.8154 50.3258 73.7933 50.3784 73.7769C50.6355 73.6832 50.8923 73.5868 51.1469 73.4848C51.1967 73.4627 51.2497 73.4399 51.303 73.4214C51.5278 73.3298 51.7478 73.2366 51.968 73.1395C52.0126 73.122 52.0564 73.1037 52.0978 73.0827C52.3486 72.9705 52.5966 72.8534 52.8424 72.7335C52.8926 72.7111 52.9459 72.6819 52.9961 72.6564C53.2233 72.5435 53.4496 72.4264 53.6734 72.3072C53.7053 72.2935 53.7239 72.2798 53.7474 72.2669C53.9929 72.1354 54.2328 71.9979 54.4724 71.8588C54.5229 71.8318 54.5727 71.7999 54.6204 71.7715C54.8536 71.6337 55.0841 71.4934 55.3117 71.3483V71.335C55.5537 71.1803 55.7933 71.0219 56.0297 70.8596C56.07 70.8326 56.1037 70.8063 56.1419 70.7803C56.3668 70.624 56.5898 70.4655 56.8091 70.3021C56.8091 70.3021 56.8091 70.2884 56.8403 70.2884C57.0683 70.1188 57.2928 69.9434 57.5148 69.7661C57.5502 69.7348 57.5856 69.71 57.6214 69.6826C58.0644 69.3246 58.4948 68.9516 58.9125 68.5653C58.9437 68.5341 58.9743 68.5085 59.0041 68.4794C59.4204 68.0902 59.8227 67.6877 60.2113 67.2709C60.2429 67.2397 60.2706 67.2078 60.3004 67.1766C60.6876 66.7576 61.0598 66.3264 61.4175 65.8829C61.4487 65.8517 61.4708 65.8169 61.4975 65.7847C61.6774 65.5589 61.8552 65.33 62.0282 65.0975C62.1962 64.8689 62.3628 64.6368 62.5255 64.4026C62.5571 64.3714 62.5708 64.3395 62.5901 64.309C62.7532 64.0724 62.9117 63.8319 63.0664 63.5896C63.0664 63.5763 63.0976 63.5581 63.0976 63.5451C63.2484 63.3088 63.3936 63.069 63.5357 62.8278C63.5357 62.8053 63.5669 62.7832 63.5757 62.7629C63.7237 62.5087 63.8679 62.2507 64.0089 61.9905C64.0089 61.9769 64.0089 61.9639 64.0404 61.9502C64.0716 61.9145 64.0808 61.8745 64.0993 61.8373L64.0681 61.8507C63.9797 61.8819 63.8966 61.9176 63.8082 61.9499C63.6423 62.0112 63.4778 62.0705 63.3119 62.1297C63.28 62.1434 63.2561 62.1518 63.2288 62.1609C63.1976 62.1743 63.1699 62.1834 63.1432 62.1921C63.0138 62.2374 62.8833 62.2805 62.7518 62.3226C62.7069 62.3362 62.663 62.3545 62.6188 62.3674C62.4712 62.4162 62.3221 62.4603 62.1734 62.5063C62.1176 62.5241 62.0611 62.5378 62.0019 62.5564C61.8546 62.6013 61.7069 62.6423 61.5599 62.683C61.5126 62.6966 61.4624 62.7096 61.4123 62.7233C61.2586 62.7682 61.105 62.8071 60.95 62.8449C60.8967 62.8586 60.8465 62.8719 60.7932 62.8853C60.6424 62.9207 60.4887 62.9585 60.3362 62.9936C60.1233 63.0413 59.9128 63.0883 59.6988 63.1314C59.2555 63.2204 58.809 63.2986 58.3579 63.3663C58.1513 63.3971 57.9454 63.4255 57.7385 63.4504C57.6936 63.4641 57.6462 63.4641 57.602 63.4641C57.4214 63.4869 57.2401 63.509 57.0577 63.5244C56.8391 63.5472 56.6196 63.5647 56.3993 63.5826C56.3309 63.5963 56.2629 63.5963 56.1983 63.5963C56.0917 63.6093 55.9854 63.6092 55.8785 63.6184C55.8251 63.6184 55.7722 63.632 55.7189 63.632C55.2639 63.6541 54.8062 63.6678 54.3457 63.6678V63.6811C52.6799 63.6811 51.049 63.529 49.4653 63.2401C49.4334 63.2401 49.4334 63.2264 49.4172 63.2264C47.5982 62.8916 45.8425 62.3731 44.1683 61.6932C43.9143 61.5909 43.6625 61.4839 43.4124 61.3731C43.3566 61.3511 43.3005 61.3234 43.2441 61.2988C42.9877 61.1828 42.7302 61.0632 42.4766 60.9391C38.8281 59.1567 35.6377 56.5795 33.1293 53.4346L33.1423 53.4438Z" fill="#8FDCB7"/>
</svg>
