<svg width="696" height="761" viewBox="0 0 696 761" fill="none" xmlns="http://www.w3.org/2000/svg">
<path fill-rule="evenodd" clip-rule="evenodd" d="M51.475 66.2814C51.475 20.3758 58.6733 -23.7619 71.9743 -65.115C117.014 -81.215 165.578 -90 216.291 -90C418.628 -90 588.222 50.1889 633.242 238.736C585.024 222.45 533.373 213.621 479.659 213.621C353.165 213.621 238.106 262.586 152.404 342.596C89.4305 267.981 51.475 171.564 51.475 66.2814ZM116.856 379.506C44.3322 295.468 0.475037 185.996 0.475037 66.2814C0.475037 6.24965 11.5032 -51.2063 31.6442 -104.171C88.4788 -127.897 150.855 -141 216.291 -141C481.199 -141 695.95 73.7508 695.95 338.659C695.95 353.465 695.279 368.114 693.966 382.578C694.966 395.221 695.475 408.002 695.475 420.902C695.475 685.811 480.724 900.562 215.816 900.562C150.379 900.562 88.0037 887.458 31.1691 863.732C11.0282 810.768 0 753.312 0 693.28C0 573.304 44.0487 463.616 116.856 379.506ZM632.683 521.174C587.538 709.545 418.028 849.561 215.816 849.561C165.103 849.561 116.539 840.776 71.4993 824.676C58.1982 783.323 51 739.186 51 693.28C51 587.764 89.124 491.153 152.349 416.469C238.106 496.773 353.378 545.941 480.134 545.941C533.465 545.941 584.762 537.237 632.683 521.174ZM642.762 382.28C639.701 412.61 633.483 441.975 624.451 470.056C579.411 486.156 530.847 494.941 480.134 494.941C367.026 494.941 264.15 451.133 187.547 379.559C264.1 308.248 366.785 264.621 479.659 264.621C530.372 264.621 578.936 273.406 623.976 289.506C633.503 319.126 639.899 350.176 642.762 382.28Z" fill="#9BDBBE"/>
</svg>
