<svg width="697" height="761" viewBox="0 0 697 761" fill="none" xmlns="http://www.w3.org/2000/svg">
<g style="mix-blend-mode:overlay">
<mask id="path-1-inside-1_828_10682" fill="white">
<path fill-rule="evenodd" clip-rule="evenodd" d="M31.758 -82.2169C88.5926 -105.943 150.968 -119.046 216.405 -119.046C481.313 -119.046 696.064 95.7049 696.064 360.614C696.064 420.645 685.036 478.101 664.895 531.066C608.06 554.792 545.684 567.895 480.248 567.895C215.34 567.895 0.588867 353.144 0.588867 88.2355C0.588867 28.2038 11.6171 -29.2522 31.758 -82.2169Z"/>
</mask>
<path d="M31.758 -82.2169L12.1111 -129.281L-8.11952 -120.835L-15.9117 -100.344L31.758 -82.2169ZM664.895 531.066L684.542 578.13L704.772 569.684L712.564 549.193L664.895 531.066ZM51.4049 -35.1531C102.126 -56.3267 157.832 -68.0459 216.405 -68.0459V-170.046C144.105 -170.046 75.0595 -155.559 12.1111 -129.281L51.4049 -35.1531ZM216.405 -68.0459C453.147 -68.0459 645.064 123.871 645.064 360.614H747.064C747.064 67.5384 509.48 -170.046 216.405 -170.046V-68.0459ZM645.064 360.614C645.064 414.355 635.198 465.674 617.225 512.938L712.564 549.193C734.873 490.528 747.064 426.935 747.064 360.614H645.064ZM645.248 484.002C594.527 505.176 538.821 516.895 480.248 516.895V618.895C552.548 618.895 621.593 604.408 684.542 578.13L645.248 484.002ZM480.248 516.895C243.506 516.895 51.5889 324.978 51.5889 88.2355H-50.4111C-50.4111 381.311 187.173 618.895 480.248 618.895V516.895ZM51.5889 88.2355C51.5889 34.4937 61.4543 -16.825 79.4277 -64.0895L-15.9117 -100.344C-38.2202 -41.6794 -50.4111 21.9138 -50.4111 88.2355H51.5889Z" fill="#27523D" fill-opacity="0.4" mask="url(#path-1-inside-1_828_10682)"/>
</g>
<g style="mix-blend-mode:overlay">
<mask id="path-3-inside-2_828_10682" fill="white">
<path fill-rule="evenodd" clip-rule="evenodd" d="M664.895 272.404C608.061 248.678 545.685 235.575 480.249 235.575C215.34 235.575 0.589417 450.326 0.589417 715.234C0.589417 775.266 11.6176 832.722 31.7585 885.687C88.5931 909.412 150.969 922.516 216.405 922.516C481.314 922.516 696.064 707.765 696.064 442.856C696.064 382.824 685.036 325.369 664.895 272.404Z"/>
</mask>
<path d="M664.895 272.404L684.542 225.34L704.773 233.785L712.565 254.276L664.895 272.404ZM31.7585 885.687L12.1116 932.75L-8.11902 924.305L-15.9111 903.814L31.7585 885.687ZM645.248 319.468C594.528 298.294 538.821 286.575 480.249 286.575V184.575C552.548 184.575 621.594 199.062 684.542 225.34L645.248 319.468ZM480.249 286.575C243.507 286.575 51.5894 478.492 51.5894 715.234H-50.4106C-50.4106 422.159 187.174 184.575 480.249 184.575V286.575ZM51.5894 715.234C51.5894 768.976 61.4549 820.295 79.4282 867.559L-15.9111 903.814C-38.2197 845.149 -50.4106 781.556 -50.4106 715.234H51.5894ZM51.4055 838.623C102.126 859.796 157.832 871.516 216.405 871.516V973.516C144.105 973.516 75.06 959.028 12.1116 932.75L51.4055 838.623ZM216.405 871.516C453.147 871.516 645.064 679.598 645.064 442.856H747.064C747.064 735.931 509.48 973.516 216.405 973.516V871.516ZM645.064 442.856C645.064 389.114 635.199 337.796 617.226 290.531L712.565 254.276C734.874 312.941 747.064 376.534 747.064 442.856H645.064Z" fill="#27523D" fill-opacity="0.4" mask="url(#path-3-inside-2_828_10682)"/>
</g>
</svg>
