<svg width="54" height="55" viewBox="0 0 54 55" fill="none" xmlns="http://www.w3.org/2000/svg">
<rect y="0.664062" width="54" height="54" rx="27" fill="#F5F7FF"/>
<path d="M31.8301 31.3041C32.5001 30.8641 33.3801 31.3441 33.3801 32.1441V33.4341C33.3801 34.7041 32.3901 36.0641 31.2001 36.4641L28.0101 37.5241C27.4501 37.7141 26.5401 37.7141 25.9901 37.5241L22.8001 36.4641C21.6001 36.0641 20.6201 34.7041 20.6201 33.4341V32.1341C20.6201 31.3441 21.5001 30.8641 22.1601 31.2941L24.2201 32.6341C25.0101 33.1641 26.0101 33.4241 27.0101 33.4241C28.0101 33.4241 29.0101 33.1641 29.8001 32.6341L31.8301 31.3041Z" fill="#3860E2"/>
<path d="M34.98 22.1241L28.99 18.1941C27.91 17.4841 26.13 17.4841 25.05 18.1941L19.03 22.1241C17.1 23.3741 17.1 26.2041 19.03 27.4641L20.63 28.5041L25.05 31.3841C26.13 32.0941 27.91 32.0941 28.99 31.3841L33.38 28.5041L34.75 27.6041V30.6641C34.75 31.0741 35.09 31.4141 35.5 31.4141C35.91 31.4141 36.25 31.0741 36.25 30.6641V25.7441C36.65 24.4541 36.24 22.9541 34.98 22.1241Z" fill="#3860E2"/>
</svg>
