<svg width="54" height="55" viewBox="0 0 54 55" fill="none" xmlns="http://www.w3.org/2000/svg">
<rect y="0.664062" width="54" height="54" rx="27" fill="#74A8F5"/>
<path d="M22 17.6641C22 15.4549 23.7909 13.6641 26 13.6641H28C30.2091 13.6641 32 15.4549 32 17.6641V32.6641H22V17.6641Z" fill="url(#paint0_linear_1572_18329)"/>
<path d="M14 26.6641C14 24.4549 15.7909 22.6641 18 22.6641H20C22.2091 22.6641 24 24.4549 24 26.6641V41.6641H14V26.6641Z" fill="url(#paint1_linear_1572_18329)"/>
<path d="M30 26.6641C30 24.4549 31.7909 22.6641 34 22.6641H36C38.2091 22.6641 40 24.4549 40 26.6641V41.6641H30V26.6641Z" fill="url(#paint2_linear_1572_18329)"/>
<defs>
<linearGradient id="paint0_linear_1572_18329" x1="27" y1="12.1641" x2="27" y2="32.6641" gradientUnits="userSpaceOnUse">
<stop stop-color="white"/>
<stop offset="1" stop-color="white" stop-opacity="0"/>
</linearGradient>
<linearGradient id="paint1_linear_1572_18329" x1="19" y1="21.1641" x2="19" y2="41.6641" gradientUnits="userSpaceOnUse">
<stop stop-color="white"/>
<stop offset="0.932292" stop-color="white" stop-opacity="0"/>
</linearGradient>
<linearGradient id="paint2_linear_1572_18329" x1="35" y1="21.1641" x2="35" y2="41.6641" gradientUnits="userSpaceOnUse">
<stop stop-color="white"/>
<stop offset="0.932292" stop-color="white" stop-opacity="0"/>
</linearGradient>
</defs>
</svg>
