<svg width="25" height="25" viewBox="0 0 25 25" fill="none" xmlns="http://www.w3.org/2000/svg">
<path d="M22.2216 9.82395C21.9484 8.91569 21.1289 8.18908 20.2184 8.09826L16.3942 7.5533L14.6642 3.92026C14.2089 2.92118 13.3895 2.37622 12.3879 2.37622C11.3863 2.37622 10.5668 2.92118 10.1116 3.82944L8.38155 7.46247L4.55734 8.09826C3.64681 8.27991 2.82733 8.91569 2.55418 9.82395C2.18997 10.823 2.46312 11.8221 3.19155 12.5487L6.01418 15.3643L5.37681 19.3607C5.19471 20.3598 5.64997 21.3588 6.46944 21.9038C6.92471 22.1763 7.37997 22.3579 7.92629 22.3579C8.38155 22.3579 8.74576 22.2671 9.10997 22.0855L12.57 20.1781L16.03 22.0855C16.8495 22.5396 17.851 22.4488 18.6705 21.9038C19.49 21.3588 19.9452 20.3598 19.7631 19.3607L19.1258 15.3643L21.9484 12.5487C22.3126 11.8221 22.5858 10.7322 22.2216 9.82395Z" fill="#99A129"/>
</svg>
