<svg width="33" height="33" viewBox="0 0 33 33" fill="none" xmlns="http://www.w3.org/2000/svg">
<path d="M15.5762 7.24284H6.10951C3.57617 7.24284 1.57617 9.24284 1.57617 11.7762V20.8428C1.57617 23.3762 3.57617 25.3762 6.10951 25.3762H15.5762C18.1095 25.3762 20.1095 23.3762 20.1095 20.8428V11.7762C20.2428 9.24284 18.1095 7.24284 15.5762 7.24284Z" fill="#1F8FFF"/>
<path d="M29.576 9.1095C28.6426 8.57617 27.4426 8.57617 26.5093 9.1095L26.376 9.24284L22.9093 11.6428C22.5093 11.9095 22.376 12.3095 22.376 12.7095V20.1762C22.376 20.5762 22.6426 20.9762 22.9093 21.2428L26.2426 23.6428L26.376 23.7762C26.776 24.0428 27.3093 24.1762 27.8426 24.1762C28.376 24.1762 29.0426 24.0428 29.4426 23.7762C30.2426 23.2428 30.776 22.3095 30.776 21.3762V11.5095C30.9093 10.5762 30.376 9.64284 29.576 9.1095Z" fill="#1F8FFF"/>
</svg>
