<svg width="25" height="25" viewBox="0 0 25 25" fill="none" xmlns="http://www.w3.org/2000/svg">
<path d="M4.16016 6.49011C4.16016 6.58912 4.16016 6.78714 4.16016 6.88615C2.36016 7.97526 1.16016 9.85645 1.16016 12.0347C1.16016 14.2129 2.36016 16.0941 4.16016 17.1832C4.16016 17.3812 4.16016 17.4802 4.16016 17.6782C4.16016 18.6683 4.46016 19.5594 5.06016 20.2525C5.86016 21.3416 7.16016 22.0347 8.66016 22.0347C9.06016 22.0347 9.36016 22.0347 9.76016 21.9357C10.5602 21.7376 11.1602 20.9456 11.1602 20.0545V17.6782V6.49011V4.01487C11.1602 3.12378 10.5602 2.3317 9.76016 2.13368C9.36016 2.03467 8.96016 2.03467 8.56016 2.03467C6.16016 2.03467 4.16016 4.01487 4.16016 6.49011Z" fill="#478F6C"/>
<path d="M23.1602 12.2347C23.1602 10.0347 21.9602 8.13467 20.1602 7.03467C20.1602 6.93467 20.1602 6.73467 20.1602 6.53467C20.1602 4.03467 18.1602 2.03467 15.6602 2.03467C15.2602 2.03467 14.9602 2.03467 14.5602 2.13467C13.6602 2.33467 13.1602 3.13467 13.1602 4.03467V6.43467V17.6347V20.0347C13.1602 20.9347 13.7602 21.7347 14.5602 21.9347C14.8602 22.0347 15.2602 22.0347 15.6602 22.0347C18.1602 22.0347 20.1602 20.0347 20.1602 17.5347C20.1602 17.4347 20.1602 17.2347 20.1602 17.1347C22.0602 16.3347 23.1602 14.4347 23.1602 12.2347Z" fill="#478F6C"/>
</svg>
