<svg width="112" height="38" viewBox="0 0 112 38" fill="none" xmlns="http://www.w3.org/2000/svg">
<path d="M34.5965 0.496582H4.16839C2.31061 0.496582 0.804688 2.01384 0.804688 3.8856V34.5285C0.804688 36.4145 2.31061 37.9317 4.16839 37.9317H34.5825C36.4402 37.9317 37.9462 36.4145 37.9462 34.5427V3.8856C37.9602 2.01384 36.4543 0.496582 34.5965 0.496582V0.496582Z" fill="#2D2D2D"/>
<path d="M52.9772 29.5514H56.538V13.925H52.9772V29.5514ZM65.9676 20.3202C64.1521 19.7246 62.4632 19.2567 62.4632 18.1223V18.0656C62.4632 17.1439 63.2513 16.4916 64.6447 16.4916C65.3202 16.4916 66.0661 16.6476 66.8543 16.917C66.8543 16.917 66.8684 16.917 66.8824 16.9312C66.9528 16.9595 67.0232 16.9879 67.0795 17.0021C67.6424 17.1864 69.1624 17.4275 70.4432 15.4139C68.7824 14.3362 66.6713 13.6556 64.7291 13.6556C61.6469 13.6556 59.198 15.4565 59.198 18.4201V18.4768C59.198 21.4688 61.7595 22.4188 64.0535 23.0711C65.8691 23.6383 67.5158 24.0495 67.5158 25.2548V25.3115C67.5158 26.3467 66.6291 26.999 65.1091 26.999C64.0958 26.999 62.9839 26.7295 61.8721 26.2049C61.5484 26.0631 59.8876 25.4959 58.4802 27.5378C60.4084 29.0551 62.8432 29.8491 65.0247 29.8491C68.2617 29.8491 70.781 28.2184 70.781 24.9287V24.8861C70.781 22.0643 68.2335 21.0292 65.9676 20.3202ZM43.2802 25.4108L39.1002 13.925H35.2861L41.6617 29.679H44.8706L51.218 13.925H47.4884L43.2802 25.4108ZM87.3039 13.5989C82.5469 13.5989 79.0143 17.2999 79.0143 21.7949C79.0143 26.2616 82.5047 29.9059 87.2476 29.9059C92.0328 29.9059 95.5654 26.2049 95.5654 21.7382C95.5654 17.2431 92.0609 13.5989 87.3039 13.5989ZM87.3039 26.8004C84.5454 26.8004 82.575 24.5175 82.575 21.7382C82.575 18.9873 84.3906 16.7327 87.2476 16.7327C90.0343 16.7327 92.0047 19.0156 92.0047 21.7949C92.0047 24.56 90.175 26.8004 87.3039 26.8004ZM106.107 13.5989C103.7 13.5989 102.251 14.8751 101.251 16.3498V13.925H97.6906V29.5655H101.251V20.7456C101.251 18.3208 102.687 16.8603 104.756 16.8603C106.867 16.8603 108.077 18.2499 108.077 20.6747V29.5514H111.638V19.597C111.638 15.9669 109.611 13.5989 106.107 13.5989ZM73.1313 29.5514H76.6921V13.925H73.1313V29.5514Z" fill="#2D2D2D"/>
<path d="M13.2179 11.2495C14.4564 11.2495 15.4838 10.271 15.4838 8.99484C15.4838 7.71865 14.4424 6.74023 13.2179 6.74023C11.9794 6.74023 10.952 7.71865 10.952 8.99484C10.952 10.271 11.9935 11.2495 13.2179 11.2495ZM8.51718 23.3166C8.39052 23.8838 8.32015 24.5077 8.32015 25.004C8.32015 26.9892 9.38977 28.308 11.6557 28.308C13.5416 28.308 15.0616 27.1878 16.1594 25.3585L15.4838 28.0669H19.2276L21.3668 19.4313C21.9016 17.2476 22.929 16.1132 24.5053 16.1132C25.7438 16.1132 26.5038 16.8931 26.5038 18.1693C26.5038 18.538 26.4757 18.9492 26.335 19.3746L25.2372 23.345C25.0683 23.9122 24.9979 24.4936 24.9979 25.0324C24.9979 26.9183 26.0957 28.2938 28.4038 28.2938C30.3742 28.2938 31.9364 27.0176 32.809 23.9547L31.3453 23.3875C30.6135 25.4436 29.9801 25.8123 29.4735 25.8123C28.9668 25.8123 28.6994 25.472 28.6994 24.8055C28.6994 24.5077 28.7698 24.1674 28.8683 23.7562L29.9379 19.8851C30.2053 18.9776 30.3038 18.1693 30.3038 17.4319C30.3038 14.5392 28.5727 13.0361 26.4616 13.0361C24.4913 13.0361 22.4927 14.8228 21.4935 16.7088L22.2253 13.3339H16.5113L15.709 16.3117H18.3831L16.7364 22.9479C15.4416 25.8407 13.0772 25.8832 12.7816 25.8265C12.289 25.713 11.9794 25.5287 11.9794 24.8906C11.9794 24.5219 12.0498 23.9973 12.2187 23.345L14.7238 13.3339H8.37644L7.57422 16.3117H10.2061L8.51718 23.3166Z" fill="white"/>
</svg>
