<svg width="110" height="33" viewBox="0 0 110 33" fill="none" xmlns="http://www.w3.org/2000/svg">
<path d="M88.6498 27.2484H22.415L27.717 32.5504L88.6498 27.2484Z" fill="#2D2D2D"/>
<path d="M28.5879 5.9615V6.75283C27.3217 5.9615 26.293 5.48669 24.7103 5.48669C20.0414 5.48669 16.5596 9.68077 16.5596 14.9036C16.5596 20.1264 20.1206 24.3205 24.7103 24.3205C26.2139 24.3205 27.3217 23.8457 28.5879 23.0543V23.8457H32.6237V5.9615H28.5879ZM24.7103 20.0473C22.4155 20.0473 20.7536 17.8315 20.7536 14.9827C20.7536 12.1339 22.4155 9.91817 24.7103 9.91817C27.0052 9.91817 28.5879 12.1339 28.5879 14.9827C28.667 17.7524 27.0052 20.0473 24.7103 20.0473Z" fill="#2D2D2D"/>
<path d="M61.1909 5.96155V16.4863C61.1909 18.4647 59.8456 20.1265 57.8673 20.1265C55.8889 20.1265 54.5437 18.4647 54.5437 16.4863V5.96155H50.4287V16.4863C50.4287 20.8387 53.3567 24.3205 57.709 24.3205C59.6873 24.3205 61.1909 23.2127 61.1909 23.2127V23.8457H65.2267V5.96155H61.1909Z" fill="#2D2D2D"/>
<path d="M99.1745 23.9248V13.3209C99.1745 11.3426 100.52 9.68077 102.498 9.68077C104.476 9.68077 105.822 11.3426 105.822 13.3209V23.8457H109.937V13.3209C109.937 8.96857 107.009 5.48669 102.656 5.48669C100.678 5.48669 99.1745 6.59456 99.1745 6.59456V5.9615H95.1387V23.9248H99.1745Z" fill="#2D2D2D"/>
<path d="M4.84743 23.9247V16.961H7.85451L13.0773 23.9247H18.3793L12.0486 15.5366C14.0269 14.1122 15.2931 11.8173 15.2931 9.2059C15.2931 4.93268 11.8112 1.45081 7.53797 1.45081H0.574219V23.8456H4.84743V23.9247ZM4.84743 5.72402H7.61711C9.51631 5.72402 11.099 7.30669 11.099 9.2059C11.099 11.1051 9.51631 12.6878 7.61711 12.6878H4.84743V5.72402Z" fill="#2D2D2D"/>
<path d="M76.3056 19.6515C75.9099 19.8889 75.5142 20.1263 74.9603 20.1263C74.3272 20.1263 73.0611 19.6515 73.0611 17.9106V10.2346H76.543V5.96142H73.0611V1.45081H69.0253V5.96142H66.8887V10.2346H69.0253V17.9897C69.0253 22.0255 72.0323 24.3995 75.1186 24.3995C76.2264 24.3995 77.8091 24.0039 79.0752 23.2917L76.3056 19.6515Z" fill="#2D2D2D"/>
<path d="M42.7522 14.3495L49.795 5.96139H44.0974L39.1911 12.2129V0.0263672H34.9971V23.9247H39.1911V16.5653L45.2053 23.9247H50.9029L42.7522 14.3495Z" fill="#2D2D2D"/>
<path d="M85.722 5.48669C80.974 5.48669 77.6504 9.60164 77.6504 14.9036C77.6504 20.4429 81.9236 24.3205 86.1177 24.3205C88.2543 24.3205 91.024 23.6083 93.3188 20.2847L89.7578 18.2272C86.9881 22.3421 82.3193 20.2847 81.7653 16.1697H93.4771C94.5058 9.75991 90.3118 5.48669 85.722 5.48669ZM89.283 12.6087H81.9236C82.7941 8.41464 88.4917 8.17724 89.283 12.6087Z" fill="#2D2D2D"/>
</svg>
