<svg width="25" height="25" viewBox="0 0 25 25" fill="none" xmlns="http://www.w3.org/2000/svg">
<path d="M8.21218 4.48975H5.07493C3.21218 4.48975 1.64355 6.08975 1.64355 7.98975V11.2897C1.64355 13.1897 3.21218 14.7897 5.07493 14.7897H7.42787C8.21218 14.7897 8.9965 14.4897 9.68277 14.0897V16.1897C9.68277 17.4897 8.70238 18.4897 7.42787 18.4897H5.85924C5.27101 18.4897 4.87885 18.8897 4.87885 19.4897C4.87885 20.0897 5.27101 20.4897 5.85924 20.4897H7.42787C9.78081 20.4897 11.6436 18.5897 11.6436 16.1897V10.4897V7.98975C11.6436 6.08975 10.0749 4.48975 8.21218 4.48975Z" fill="#242D3C"/>
<path d="M20.3073 4.48975H17.0734C15.2115 4.48975 13.6436 6.08975 13.6436 7.98975V11.2897C13.6436 13.1897 15.2115 14.7897 17.0734 14.7897H19.4253C20.2093 14.7897 20.9933 14.4897 21.6793 14.0897V16.1897C21.6793 17.4897 20.6993 18.4897 19.4253 18.4897H17.8574C17.2694 18.4897 16.8774 18.8897 16.8774 19.4897C16.8774 20.0897 17.2694 20.4897 17.8574 20.4897H19.4253C21.7773 20.4897 23.6392 18.5897 23.6392 16.1897V10.4897V7.98975C23.7372 6.08975 22.1692 4.48975 20.3073 4.48975Z" fill="#242D3C"/>
</svg>
