<svg width="32" height="32" viewBox="0 0 32 32" fill="none" xmlns="http://www.w3.org/2000/svg">
<path d="M31.0362 28.4L5.25222 32L0.962891 28.4H31.0362ZM10.1336 25.7013H5.25222V0H13.3216C15.6719 0.00105852 17.9257 0.934831 19.5882 2.59627C21.2506 4.25771 22.1858 6.511 22.1882 8.86133C22.1882 11.84 20.7109 14.4667 18.4562 16.0853L25.6802 25.7H19.5669L13.5856 17.728H10.1336V25.7013ZM10.1336 12.848H13.3229C14.3795 12.8469 15.3926 12.4267 16.1398 11.6796C16.8869 10.9324 17.3072 9.91932 17.3082 8.86267C17.3054 7.80693 16.8845 6.79529 16.1376 6.04914C15.3907 5.30299 14.3786 4.88309 13.3229 4.88133H10.1336V12.848Z" fill="#9747FF"/>
</svg>
