<svg width="25" height="25" viewBox="0 0 25 25" fill="none" xmlns="http://www.w3.org/2000/svg">
<path d="M20.75 16.5V19C20.75 20.93 19.18 22.5 17.25 22.5H7.25C5.32 22.5 3.75 20.93 3.75 19V18.35C3.75 16.78 5.03 15.5 6.6 15.5H19.75C20.3 15.5 20.75 15.95 20.75 16.5Z" fill="#DD9F00"/>
<path d="M15.75 2.5H8.75C4.75 2.5 3.75 3.5 3.75 7.5V15.08C4.51 14.41 5.51 14 6.6 14H19.75C20.3 14 20.75 13.55 20.75 13V7.5C20.75 3.5 19.75 2.5 15.75 2.5ZM13.25 11.25H8.25C7.84 11.25 7.5 10.91 7.5 10.5C7.5 10.09 7.84 9.75 8.25 9.75H13.25C13.66 9.75 14 10.09 14 10.5C14 10.91 13.66 11.25 13.25 11.25ZM16.25 7.75H8.25C7.84 7.75 7.5 7.41 7.5 7C7.5 6.59 7.84 6.25 8.25 6.25H16.25C16.66 6.25 17 6.59 17 7C17 7.41 16.66 7.75 16.25 7.75Z" fill="#DD9F00"/>
</svg>
