<svg width="25" height="25" viewBox="0 0 25 25" fill="none" xmlns="http://www.w3.org/2000/svg">
<path d="M4.05 23.5C2.55 23.5 1.25 22.2 1.25 20.7V17.1C1.25 15.5 2.55 14.3 4.05 14.3C5.65 14.3 6.85 15.6 6.85 17.1V20.7C6.85 22.2 5.65 23.5 4.05 23.5Z" fill="#1F8FFF"/>
<path d="M12.25 23.5001C10.65 23.5001 9.44995 22.2001 9.44995 20.7001V11.6C9.44995 10 10.75 8.80005 12.25 8.80005C13.85 8.80005 15.05 10.1 15.05 11.6V20.7001C15.05 22.2001 13.85 23.5001 12.25 23.5001Z" fill="#1F8FFF"/>
<path d="M20.4499 23.5C18.8499 23.5 17.6499 22.2 17.6499 20.7V4.3C17.6499 2.7 18.9499 1.5 20.4499 1.5C21.9499 1.5 23.2499 2.8 23.2499 4.3V20.7C23.2499 22.2 21.9499 23.5 20.4499 23.5Z" fill="#1F8FFF"/>
</svg>
