<svg width="25" height="25" viewBox="0 0 25 25" fill="none" xmlns="http://www.w3.org/2000/svg">
<path d="M17.25 2.75H7.25C4.49 2.75 2.25 4.98 2.25 7.73V13.71V14.71C2.25 17.46 4.49 19.69 7.25 19.69H8.75C9.02 19.69 9.38 19.87 9.55 20.09L11.05 22.08C11.71 22.96 12.79 22.96 13.45 22.08L14.95 20.09C15.14 19.84 15.44 19.69 15.75 19.69H17.25C20.01 19.69 22.25 17.46 22.25 14.71V7.73C22.25 4.98 20.01 2.75 17.25 2.75ZM13.25 14.5H7.25C6.84 14.5 6.5 14.16 6.5 13.75C6.5 13.34 6.84 13 7.25 13H13.25C13.66 13 14 13.34 14 13.75C14 14.16 13.66 14.5 13.25 14.5ZM17.25 9.5H7.25C6.84 9.5 6.5 9.16 6.5 8.75C6.5 8.34 6.84 8 7.25 8H17.25C17.66 8 18 8.34 18 8.75C18 9.16 17.66 9.5 17.25 9.5Z" fill="#47D18C"/>
</svg>
