<svg width="25" height="25" viewBox="0 0 25 25" fill="none" xmlns="http://www.w3.org/2000/svg">
<path d="M18.25 2.75H6.25C4.59 2.75 3.25 4.08 3.25 5.72V16.63C3.25 18.27 4.59 19.6 6.25 19.6H7.01C7.81 19.6 8.57 19.91 9.13 20.47L10.84 22.16C11.62 22.93 12.89 22.93 13.67 22.16L15.38 20.47C15.94 19.91 16.71 19.6 17.5 19.6H18.25C19.91 19.6 21.25 18.27 21.25 16.63V5.72C21.25 4.08 19.91 2.75 18.25 2.75ZM10.63 13.76C11.04 13.76 11.38 14.1 11.38 14.51C11.38 14.92 11.04 15.26 10.63 15.26H7.95C7.51 15.26 7.1 15.05 6.84 14.69C6.59 14.35 6.53 13.93 6.65 13.53C7 12.46 7.86 11.88 8.62 11.36C9.42 10.82 9.87 10.48 9.87 9.9C9.87 9.38 9.45 8.96 8.93 8.96C8.41 8.96 8 9.39 8 9.91C8 10.32 7.66 10.66 7.25 10.66C6.84 10.66 6.5 10.32 6.5 9.91C6.5 8.57 7.59 7.47 8.94 7.47C10.29 7.47 11.38 8.56 11.38 9.91C11.38 11.32 10.32 12.04 9.47 12.62C8.94 12.98 8.44 13.32 8.19 13.77H10.63V13.76ZM17.25 13.83H17.04V14.52C17.04 14.93 16.7 15.27 16.29 15.27C15.88 15.27 15.54 14.93 15.54 14.52V13.83H13.58C13.58 13.83 13.58 13.83 13.57 13.83C13.08 13.83 12.63 13.57 12.38 13.15C12.13 12.72 12.13 12.19 12.38 11.77C13.06 10.6 13.85 9.27 14.57 8.11C14.89 7.6 15.5 7.37 16.07 7.53C16.64 7.7 17.04 8.22 17.03 8.82V12.34H17.25C17.66 12.34 18 12.68 18 13.09C18 13.5 17.66 13.83 17.25 13.83Z" fill="#1F8FFF"/>
<path d="M15.54 12.33V9.39001C14.95 10.35 14.34 11.38 13.79 12.32H15.54V12.33Z" fill="#1F8FFF"/>
</svg>
