<svg width="25" height="25" viewBox="0 0 25 25" fill="none" xmlns="http://www.w3.org/2000/svg">
<path d="M20.2502 10.3C19.8402 10.3 19.5002 9.96 19.5002 9.55V5.5H15.4502C15.0402 5.5 14.7002 5.16 14.7002 4.75C14.7002 4.34 15.0402 4 15.4502 4H20.2502C20.6602 4 21.0002 4.34 21.0002 4.75V9.55C21.0002 9.96 20.6602 10.3 20.2502 10.3Z" fill="#DD9F00"/>
<path d="M11.3 15.7L9.45 17.55C9.06 17.94 8.44 17.94 8.04 17.56C7.93 17.45 7.82 17.35 7.71 17.24C6.68 16.2 5.75 15.11 4.92 13.97C4.1 12.83 3.44 11.69 2.96 10.56C2.49 9.42 2.25 8.33 2.25 7.29C2.25 6.61 2.37 5.96 2.61 5.36C2.85 4.75 3.23 4.19 3.76 3.69C4.4 3.06 5.1 2.75 5.84 2.75C6.12 2.75 6.4 2.81 6.65 2.93C6.91 3.05 7.14 3.23 7.32 3.49L9.64 6.76C9.82 7.01 9.95 7.24 10.04 7.46C10.13 7.67 10.18 7.88 10.18 8.07C10.18 8.31 10.11 8.55 9.97 8.78C9.84 9.01 9.65 9.25 9.41 9.49L8.65 10.28C8.54 10.39 8.49 10.52 8.49 10.68C8.49 10.76 8.5 10.83 8.52 10.91C8.55 10.99 8.58 11.05 8.6 11.11C8.78 11.44 9.09 11.87 9.53 12.39C9.98 12.91 10.46 13.44 10.98 13.97C11.08 14.07 11.19 14.17 11.29 14.27C11.69 14.66 11.7 15.3 11.3 15.7Z" fill="#DD9F00"/>
<path d="M22.2201 19.08C22.2201 19.36 22.1701 19.65 22.0701 19.93C22.0401 20.01 22.0101 20.09 21.9701 20.17C21.8001 20.53 21.5801 20.87 21.2901 21.19C20.8001 21.73 20.2601 22.12 19.6501 22.37C19.6401 22.37 19.6301 22.38 19.6201 22.38C19.0301 22.62 18.3901 22.75 17.7001 22.75C16.6801 22.75 15.5901 22.51 14.4401 22.02C13.2901 21.53 12.1401 20.87 11.0001 20.04C10.6101 19.75 10.2201 19.46 9.8501 19.15L13.1201 15.88C13.4001 16.09 13.6501 16.25 13.8601 16.36C13.9101 16.38 13.9701 16.41 14.0401 16.44C14.1201 16.47 14.2001 16.48 14.2901 16.48C14.4601 16.48 14.5901 16.42 14.7001 16.31L15.4601 15.56C15.7101 15.31 15.9501 15.12 16.1801 15C16.4101 14.86 16.6401 14.79 16.8901 14.79C17.0801 14.79 17.2801 14.83 17.5001 14.92C17.7201 15.01 17.9501 15.14 18.2001 15.31L21.5101 17.66C21.7701 17.84 21.9501 18.05 22.0601 18.3C22.1601 18.55 22.2201 18.8 22.2201 19.08Z" fill="#DD9F00"/>
</svg>
